<?xml version="1.0" encoding="UTF-8"?>
<!DOCTYPE svg PUBLIC "-//W3C//DTD SVG 1.1//EN" "http://www.w3.org/Graphics/SVG/1.1/DTD/svg11.dtd">
<!-- Creator: CorelDRAW 2021 (64-Bit) -->
<svg xmlns="http://www.w3.org/2000/svg" xml:space="preserve" width="7.14989in" height="7.03632in" version="1.1" style="shape-rendering:geometricPrecision; text-rendering:geometricPrecision; image-rendering:optimizeQuality; fill-rule:evenodd; clip-rule:evenodd"
viewBox="0 0 7149.89 7036.32"
 xmlns:xlink="http://www.w3.org/1999/xlink"
 xmlns:xodm="http://www.corel.com/coreldraw/odm/2003">
 <defs>
  <style type="text/css">
   <![CDATA[
    .fil2 {fill:#386ED9}
    .fil0 {fill:#182E85;fill-rule:nonzero}
    .fil1 {fill:#386ED9;fill-rule:nonzero}
   ]]>
  </style>
 </defs>
 <g id="Layer_x0020_1">
  <metadata id="CorelCorpID_0Corel-Layer"/>
  <g id="_1752602903536">
   <path class="fil0" d="M-0 5146.52l462.03 -1214.47 181.04 0 460.14 1214.47 -158.41 0 -128.23 -333.79 -528.03 0 -128.24 333.79 -160.3 0zm314.93 -456.37l473.34 0 -237.61 -624.2 -235.73 624.2z"/>
   <path id="_1" class="fil0" d="M1230.2 5478.43c-59.09,0 -110.63,-8.17 -154.64,-24.52l0 -124.46c21.37,7.54 41.17,12.57 59.4,15.09 18.23,2.52 36.78,3.77 55.63,3.77 42.74,0 76.37,-7.54 100.89,-22.63 24.52,-15.09 46.2,-38.03 65.06,-68.83 18.86,-30.8 39.6,-70.72 62.23,-119.75l-394.14 -884.45 160.3 0 311.16 720.39 320.59 -720.39 158.41 0 -375.28 854.28c-31.43,71.66 -63.49,135.46 -96.18,191.41 -32.69,55.95 -70.41,99.95 -113.15,132.01 -42.75,32.06 -96.18,48.09 -160.3,48.09z"/>
   <path id="_2" class="fil0" d="M2381.2 5165.38c-155.9,0 -269.36,-39.92 -340.39,-119.75 -71.03,-79.83 -106.55,-195.18 -106.55,-346.05 0,-149.61 35.83,-264.64 107.49,-345.11 71.66,-80.46 184.81,-120.69 339.45,-120.69 154.64,0 267.79,40.23 339.45,120.69 71.66,80.46 107.49,195.5 107.49,345.11 0,150.87 -35.2,266.22 -105.6,346.05 -70.41,79.83 -184.18,119.75 -341.33,119.75zm0 -132.01c106.86,0 182.3,-26.72 226.3,-80.15 44,-53.43 66,-137.98 66,-253.65 0,-115.66 -22.32,-200.21 -66.95,-253.64 -44.63,-53.43 -119.75,-80.15 -225.35,-80.15 -105.61,0 -180.72,26.72 -225.36,80.15 -44.63,53.43 -66.94,137.98 -66.94,253.64 0,115.67 22,200.21 66,253.65 44,53.43 119.43,80.15 226.3,80.15z"/>
   <path id="_3" class="fil0" d="M3273.83 5165.38c-88.01,0 -154.32,-23.57 -198.96,-70.72 -44.63,-47.15 -66.94,-112.84 -66.94,-197.07l0 -522.37 -135.78 0 0 -122.58 135.78 0 0 -220.64 154.64 -47.15 0 267.78 247.04 0 -9.43 122.58 -237.61 0 0 514.83c0,54.06 12.26,92.72 36.77,115.98 24.52,23.26 66.95,34.89 127.3,34.89 32.69,0 68.52,-6.29 107.49,-18.86l0 116.92c-46.52,17.6 -99.95,26.4 -160.3,26.4z"/>
   <path id="_4" class="fil0" d="M3821.37 5165.38c-106.87,0 -187.64,-29.54 -242.33,-88.63 -54.69,-59.09 -82.03,-145.21 -82.03,-258.36l0 -565.75 154.64 0 0 571.41c0,74.18 18.54,128.87 55.63,164.07 37.09,35.2 94.61,52.8 172.56,52.8 55.31,0 107.49,-10.06 156.52,-30.17 49.03,-20.11 91.15,-47.78 126.35,-82.98l0 -675.13 154.64 0 0 893.88 -139.55 0 -9.43 -101.83c-42.75,35.2 -93.67,64.12 -152.75,86.75 -59.09,22.63 -123.84,33.94 -194.24,33.94z"/>
   <path id="_5" class="fil0" d="M4474.51 5146.52l0 -893.88 139.55 0 9.43 101.83c42.74,-35.2 92.72,-64.12 149.92,-86.75 57.2,-22.63 122.89,-33.94 197.07,-33.94 113.15,0 195.5,26.4 247.04,79.2 51.54,52.8 77.32,135.78 77.32,248.93l0 584.61 -154.64 0 0 -578.95c0,-77.94 -15.72,-132.32 -47.15,-163.12 -31.43,-30.8 -91.78,-46.2 -181.04,-46.2 -55.32,0 -107.49,10.06 -156.52,30.17 -49.03,20.12 -91.15,47.78 -126.35,82.98l0 675.13 -154.64 0z"/>
   <path id="_6" class="fil0" d="M5778.25 5165.38c-125.72,0 -224.41,-34.89 -296.07,-104.66 -71.66,-69.78 -107.49,-185.76 -107.49,-347.94 0,-160.92 37.4,-280.99 112.2,-360.19 74.81,-79.2 175.07,-118.81 300.79,-118.81 111.89,0 208.7,28.29 290.42,84.86l0 -443.17 154.64 0 0 1271.04 -132.01 0 -11.31 -94.29c-41.49,38.97 -87.06,67.57 -136.72,85.81 -49.66,18.23 -107.81,27.34 -174.44,27.34zm39.6 -124.46c51.54,0 99.32,-8.8 143.32,-26.4 44,-17.6 82.98,-44.63 116.92,-81.09l0 -486.54c-31.43,-27.66 -68.52,-49.34 -111.26,-65.06 -42.75,-15.72 -91.15,-23.57 -145.21,-23.57 -99.32,0 -172.87,28.6 -220.64,85.81 -47.78,57.2 -71.66,146.78 -71.66,268.73 0,116.92 22,200.84 66,251.76 44,50.92 118.18,76.37 222.53,76.37z"/>
   <path id="_7" class="fil0" d="M6810.44 5165.38c-159.67,0 -279.1,-38.35 -358.31,-115.04 -79.2,-76.69 -118.81,-194.87 -118.81,-354.54 0,-143.32 34.26,-256.16 102.78,-338.5 68.52,-82.35 176.95,-123.52 325.31,-123.52 88,0 160.61,16.03 217.81,48.09 57.2,32.06 99.95,76.06 128.24,132.01 28.29,55.94 42.43,119.12 42.43,189.52l0 167.84 -661.92 0c5.03,67.89 19.8,121.32 44.31,160.3 24.52,38.97 61.61,66.95 111.26,83.92 49.66,16.97 115.35,25.46 197.07,25.46 91.78,0 176.01,-15.72 252.7,-47.15l0 120.69c-38.98,16.34 -82.67,28.92 -131.07,37.72 -48.4,8.8 -99,13.2 -151.81,13.2zm-322.48 -505.4l524.26 0 0 -73.55c0,-72.92 -19.17,-129.18 -57.52,-168.78 -38.35,-39.6 -101.52,-59.41 -189.52,-59.41 -106.87,0 -179.78,25.15 -218.76,75.43 -38.97,50.29 -58.46,125.72 -58.46,226.3z"/>
   <path id="_8" class="fil0" d="M-0 6704.41l462.03 -1214.47 181.04 0 460.14 1214.47 -158.41 0 -128.23 -333.79 -528.03 0 -128.24 333.79 -160.3 0zm314.93 -456.37l473.34 0 -237.61 -624.2 -235.73 624.2z"/>
   <path id="_9" class="fil0" d="M1230.2 7036.32c-59.09,0 -110.63,-8.17 -154.64,-24.52l0 -124.46c21.37,7.54 41.17,12.57 59.4,15.09 18.23,2.52 36.78,3.77 55.63,3.77 42.74,0 76.37,-7.54 100.89,-22.63 24.52,-15.09 46.2,-38.03 65.06,-68.83 18.86,-30.8 39.6,-70.72 62.23,-119.75l-394.14 -884.45 160.3 0 311.16 720.39 320.59 -720.39 158.41 0 -375.28 854.28c-31.43,71.66 -63.49,135.46 -96.18,191.41 -32.69,55.95 -70.41,99.95 -113.15,132.01 -42.75,32.06 -96.18,48.09 -160.3,48.09z"/>
   <path id="_10" class="fil0" d="M2381.2 6723.27c-155.9,0 -269.36,-39.92 -340.39,-119.75 -71.03,-79.83 -106.55,-195.18 -106.55,-346.05 0,-149.61 35.83,-264.64 107.49,-345.11 71.66,-80.46 184.81,-120.69 339.45,-120.69 154.64,0 267.79,40.23 339.45,120.69 71.66,80.46 107.49,195.5 107.49,345.11 0,150.87 -35.2,266.22 -105.6,346.05 -70.41,79.83 -184.18,119.75 -341.33,119.75zm0 -132.01c106.86,0 182.3,-26.72 226.3,-80.15 44,-53.43 66,-137.98 66,-253.65 0,-115.66 -22.32,-200.21 -66.95,-253.64 -44.63,-53.43 -119.75,-80.15 -225.35,-80.15 -105.61,0 -180.72,26.72 -225.36,80.15 -44.63,53.43 -66.94,137.98 -66.94,253.64 0,115.67 22,200.21 66,253.65 44,53.43 119.43,80.15 226.3,80.15z"/>
   <path id="_11" class="fil0" d="M3356.81 6723.27c-155.9,0 -269.36,-39.92 -340.39,-119.75 -71.03,-79.83 -106.55,-195.18 -106.55,-346.05 0,-149.61 35.83,-264.64 107.49,-345.11 71.66,-80.46 184.81,-120.69 339.45,-120.69 154.64,0 267.79,40.23 339.45,120.69 71.66,80.46 107.49,195.5 107.49,345.11 0,150.87 -35.2,266.22 -105.6,346.05 -70.41,79.83 -184.18,119.75 -341.33,119.75zm0 -132.01c106.86,0 182.3,-26.72 226.3,-80.15 44,-53.43 66,-137.98 66,-253.65 0,-115.66 -22.32,-200.21 -66.95,-253.64 -44.63,-53.43 -119.75,-80.15 -225.35,-80.15 -105.61,0 -180.72,26.72 -225.36,80.15 -44.63,53.43 -66.94,137.98 -66.94,253.64 0,115.67 22,200.21 66,253.65 44,53.43 119.43,80.15 226.3,80.15z"/>
   <path id="_12" class="fil0" d="M4117.44 6723.27c-60.35,0 -107.81,-16.03 -142.38,-48.09 -34.57,-32.06 -51.86,-86.44 -51.86,-163.13l0 -1078.69 154.64 0 0 1061.72c0,37.72 6.29,63.49 18.86,77.32 12.57,13.83 32.06,20.74 58.46,20.74 28.91,0 57.2,-3.77 84.86,-11.31l0 122.58c-20.12,7.54 -40.23,12.57 -60.35,15.09 -20.12,2.52 -40.86,3.77 -62.23,3.77z"/>
   <path id="_13" class="fil0" d="M4589.54 6723.27c-56.57,0 -108.75,-10.06 -156.52,-30.17 -47.78,-20.11 -86.12,-49.97 -115.04,-89.57 -28.92,-39.6 -43.37,-89.58 -43.37,-149.93 0,-81.72 27.03,-148.67 81.09,-200.84 54.06,-52.18 142.07,-78.26 264.02,-78.26l311.16 0 0 -54.69c0,-49.03 -6.6,-88 -19.8,-116.92 -13.2,-28.91 -38.03,-49.66 -74.49,-62.23 -36.46,-12.57 -89.89,-18.86 -160.3,-18.86 -54.06,0 -106.24,4.4 -156.52,13.2 -50.29,8.8 -97.43,20.74 -141.44,35.83l0 -128.24c40.23,-15.09 87.69,-27.34 142.38,-36.77 54.69,-9.43 113.46,-14.15 176.33,-14.15 126.98,0 222.21,25.78 285.7,77.32 63.49,51.55 95.24,135.15 95.24,250.81l0 584.61 -130.12 0 -11.31 -101.83c-38.98,40.23 -86.12,70.41 -141.44,90.52 -55.32,20.11 -123.84,30.17 -205.56,30.17zm39.6 -126.35c65.37,0 123.2,-11.63 173.5,-34.89 50.29,-23.26 93.03,-55 128.24,-95.24l0 -173.5 -307.39 0c-70.41,0 -120.69,13.2 -150.87,39.6 -30.17,26.4 -45.26,66.63 -45.26,120.69 0,54.06 18.23,91.46 54.69,112.21 36.46,20.74 85.49,31.11 147.09,31.11z"/>
   <g>
    <polygon class="fil1" points="3450.88,2071.84 2720.61,2210.4 2402.45,1370.66 3450.88,1171.74 "/>
    <polygon class="fil0" points="409.76,3179.48 1494.72,339.18 2032.79,339.18 3108.92,3179.48 2614.96,3179.48 1759.34,775.81 908.13,3179.48 "/>
    <path class="fil2" d="M0.01 0l3518.67 0 0 3518.67 -3518.67 0 0 -3518.67zm2106.67 2326.9l-1925.85 365.39 0 645.55 3157.04 0 0 -3157.04 -3157.04 0 0 1611.39 1726.62 -327.59 199.23 862.29z"/>
   </g>
  </g>
 </g>
</svg>
