<?xml version="1.0"?>
<svg xmlns="http://www.w3.org/2000/svg" id="Capa_1" enable-background="new 0 0 512 512" height="512px" viewBox="0 0 512 512" width="512px" class=""><g><path d="m115 210h20c19.299 0 35-15.701 35-35 0-8.284-6.716-15-15-15s-15 6.716-15 15c0 2.757-2.243 5-5 5h-20c-2.757 0-5-2.243-5-5v-80c0-2.757 2.243-5 5-5h20c2.757 0 5 2.243 5 5 0 8.284 6.716 15 15 15s15-6.716 15-15c0-19.299-15.701-35-35-35h-20c-19.299 0-35 15.701-35 35v80c0 19.299 15.701 35 35 35z" data-original="#000000" class="active-path" data-old_color="#000000" fill="#000000"/><path d="m220.486 193.786c1.723 6.606 7.688 11.214 14.514 11.214s12.791-4.608 14.514-11.214l30-115c2.091-8.016-2.712-16.209-10.728-18.301-8.013-2.091-16.209 2.713-18.3 10.729l-15.486 59.361-15.486-59.361c-2.091-8.016-10.285-12.819-18.3-10.729-8.016 2.092-12.819 10.285-10.728 18.301z" data-original="#000000" class="active-path" data-old_color="#000000" fill="#000000"/><path d="m210 255c0-8.284-6.716-15-15-15h-120c-8.284 0-15 6.716-15 15s6.716 15 15 15h120c8.284 0 15-6.716 15-15z" data-original="#000000" class="active-path" data-old_color="#000000" fill="#000000"/><path d="m165 300h-90c-8.284 0-15 6.716-15 15s6.716 15 15 15h90c8.284 0 15-6.716 15-15s-6.716-15-15-15z" data-original="#000000" class="active-path" data-old_color="#000000" fill="#000000"/><path d="m165 360h-90c-8.284 0-15 6.716-15 15s6.716 15 15 15h90c8.284 0 15-6.716 15-15s-6.716-15-15-15z" data-original="#000000" class="active-path" data-old_color="#000000" fill="#000000"/><path d="m497 312h-48.787c-9.673 0-18.767-3.767-25.607-10.606-12.505-12.506-29.133-19.394-46.819-19.394h-15.787v-267c0-8.284-6.716-15-15-15h-330c-8.284 0-15 6.716-15 15v422c0 8.284 6.716 15 15 15h209.58c-1.665 4.695-2.58 9.741-2.58 15 0 24.813 20.187 45 45 45h108.787c17.687 0 34.314-6.888 46.82-19.394 6.84-6.84 15.934-10.606 25.607-10.606h48.786c8.284 0 15-6.716 15-15v-140c0-8.284-6.716-15-15-15zm-467-282h300v252h-83c-24.813 0-45 20.187-45 45s20.187 45 45 45h83v50h-300zm222 437c0-8.271 6.729-15 15-15h40c8.271 0 15 6.729 15 15s-6.729 15-15 15h-40c-8.271 0-15-6.729-15-15zm230-15h-33.787c-17.687 0-34.314 6.888-46.82 19.394-6.84 6.84-15.934 10.606-25.607 10.606h-26.366c1.665-4.695 2.58-9.741 2.58-15 0-5.486-.99-10.743-2.795-15.609 6.235-1.819 10.795-7.568 10.795-14.391v-31.035c7.507 3.848 16 6.035 25 6.035 8.284 0 15-6.716 15-15s-6.716-15-15-15c-13.785 0-25-11.215-25-25 0-8.284-6.716-15-15-15h-98c-8.271 0-15-6.729-15-15s6.729-15 15-15h128.787c9.673 0 18.767 3.767 25.607 10.606 12.505 12.506 29.133 19.394 46.819 19.394h33.787z" data-original="#000000" class="active-path" data-old_color="#000000" fill="#000000"/></g> </svg>
